<?xml version="1.0" encoding="utf-8"?>
<!-- Generator: Adobe Illustrator 26.2.1, SVG Export Plug-In . SVG Version: 6.00 Build 0)  -->
<svg version="1.1" id="Camada_1" xmlns="http://www.w3.org/2000/svg" xmlns:xlink="http://www.w3.org/1999/xlink" x="0px" y="0px"
	 viewBox="0 0 450.59 208.24" style="enable-background:new 0 0 450.59 208.24;" xml:space="preserve">
<g>
	<path d="M205.47,81.52c-9.15-0.37-18.32,0.85-27.06,3.52c-1.1-1.12-2.51-1.96-3.83-2.31c-2.89-0.77-5.93-0.39-8.86-0.22
		c-2.69,0.16-4.46-0.02-6.31-1.43c-1.74-1.32-3.1-3.52-3.82-5.62c-0.53-1.57-0.82-3.11-0.9-4.62c8.32-8.18,16.45-16.56,24.54-24.97
		c3.04-3.16-0.78-7.7-4.53-5.88c-10.59,5.16-23.48,11.92-26.79,24.28c-0.29,1.07-0.48,2.18-0.59,3.32
		c-4.96,4.82-9.99,9.56-15.14,14.17c-14.16,12.67-28.96,24.63-43.49,36.88c-15.15,12.78-30.19,25.69-45.16,38.68
		c-1.53,1.33-1.36,3.93,0,5.29c1.51,1.51,3.76,1.33,5.29,0c22.46-19.5,45.16-38.69,67.95-57.8c10.73-9,21.32-18.13,31.49-27.75
		c1.81,6.01,5.93,11.23,12.22,12.62c1.83,0.4,3.65,0.38,5.48,0.28c-2.89,1.43-5.7,3.03-8.4,4.81c-3,1.97-1.97,7.01,1.89,6.97
		c4.1-0.04,8.08-1.04,11.71-2.93c2.64-1.37,5.66-3.51,7.61-6.03c8.54-2.85,17.57-4.16,26.69-3.79
		C210.29,89.2,210.28,81.72,205.47,81.52z"/>
	<path d="M317.71,88.57c-27.68,0.2-55.36-0.5-83.04-1.14c-4.17-0.1-8.34-0.19-12.52-0.29c0.88-1.17,1.13-2.72,0.31-4.12
		c-0.96-1.63-3.46-2.51-5.12-1.34c-2.71,1.91-5.43,3.81-8.14,5.72c-2.96,2.08-2.01,6.88,1.89,6.97c27.62,0.64,55.25,1.42,82.87,1.66
		c7.91,0.07,15.83,0.08,23.74,0.03C322.52,96.02,322.53,88.53,317.71,88.57z"/>
	<path d="M405.76,23.65c-1.65-0.66-3.79-0.15-4.67,1.53c-4.88,9.32-9.77,18.64-14.65,27.96c-8.36,13.03-18.38,25-29.74,35.53
		c-3.41,3.43,1.77,8.56,5.29,5.29c1.27-1.28,2.79-2.12,4.41-2.58c-5.95,11.35-11.89,22.7-17.84,34.04
		c-4.95,9.45-9.91,18.91-14.86,28.36c-2.23,4.26,4.22,8.05,6.46,3.78c11.52-21.99,23.05-43.98,34.57-65.96
		c1.2-0.39,2.24-1.4,2.57-2.6c0.21-0.77,0.17-1.51-0.07-2.17c5.15-9.84,10.31-19.67,15.46-29.51c0.21-0.4,0.42-0.8,0.63-1.19
		c5.41-8.6,10.15-17.64,14.16-27.02c0.02-0.05,0.05-0.09,0.07-0.14c0,0-0.01,0-0.01,0c0.13-0.3,0.26-0.59,0.39-0.89
		C408.63,26.37,407.29,24.27,405.76,23.65z"/>
	<path d="M329.4,177.38c-4.81,0-4.82,7.48,0,7.48C334.21,184.86,334.22,177.38,329.4,177.38z"/>
</g>
</svg>
